<svg width="18" height="23" viewBox="0 0 18 23" fill="none" xmlns="http://www.w3.org/2000/svg">
<path d="M11 10.5H5M7 14.5H5M13 6.5H5M17 6.3V16.7C17 18.3802 17 19.2202 16.673 19.862C16.3854 20.4265 15.9265 20.8854 15.362 21.173C14.7202 21.5 13.8802 21.5 12.2 21.5H5.8C4.11984 21.5 3.27976 21.5 2.63803 21.173C2.07354 20.8854 1.6146 20.4265 1.32698 19.862C1 19.2202 1 18.3802 1 16.7V6.3C1 4.61984 1 3.77976 1.32698 3.13803C1.6146 2.57354 2.07354 2.1146 2.63803 1.82698C3.27976 1.5 4.11984 1.5 5.8 1.5H12.2C13.8802 1.5 14.7202 1.5 15.362 1.82698C15.9265 2.1146 16.3854 2.57354 16.673 3.13803C17 3.77976 17 4.61984 17 6.3Z" stroke="#161F1B" stroke-width="2" stroke-linecap="round" stroke-linejoin="round"/>
</svg>
